<?xml version="1.0" encoding="utf-8" ?><svg xmlns="http://www.w3.org/2000/svg" xmlns:xlink="http://www.w3.org/1999/xlink" width="500" height="500" viewBox="0 0 500 500"><path fill="#FEFEFE" d="M237.79 18.9439C364.751 12.1845 473.176 109.579 480.025 236.535C486.873 363.492 389.556 471.985 262.604 478.924C135.525 485.869 26.9005 388.433 20.0448 261.35C13.1891 134.266 110.702 25.71 237.79 18.9439Z"/><path d="M246.981 48.8328C357.663 47.1306 448.766 135.48 450.461 246.162C452.156 356.843 363.801 447.941 253.119 449.628C142.447 451.316 51.3603 362.97 49.6656 252.299C47.9709 141.628 136.31 50.5348 246.981 48.8328Z"/><path fill="#FEFEFE" d="M296.465 195.855C321.847 192.825 342.957 211.607 336.634 237.841C332.58 254.66 314.426 265.812 302.403 276.756C300.148 278.809 296.21 282.029 293.623 283.555C308.234 283.212 324.106 283.52 338.778 283.526C338.699 290.152 338.754 296.877 338.753 303.51L277.375 303.499L262.732 303.492C262.747 297.189 262.73 290.886 262.682 284.583L262.954 284.408C263.927 283.766 266.839 281.187 267.838 280.341C271.471 277.277 275.083 274.189 278.675 271.078L295.601 256.434C302.849 250.162 313.251 242.53 315.042 232.657C316.641 223.846 312.109 216 302.792 214.771C298.158 214.159 293.693 215 289.801 217.722C284.633 221.378 283.77 226.868 282.916 232.674C276.052 231.663 269.134 231.465 262.211 230.405C262.513 227.935 262.6 225.555 263.098 223.09C266.734 205.093 279.206 197.379 296.465 195.855Z"/><path fill="#FEFEFE" d="M110.429 195.856C113.346 195.423 119.886 195.779 122.781 196.284C131.782 197.854 139.788 201.996 145.151 209.552C150.04 216.441 151.782 225.382 150.55 233.623C148.309 249.791 134.897 260.732 123.071 270.535C118.295 274.494 112.246 279.951 107.182 283.521L152.057 283.522C151.819 289.837 151.973 297.149 152.001 303.506L89.125 303.5L75.6311 303.501C75.6285 297.359 75.4352 291.089 75.5444 284.975C79.538 282.146 85.8975 276.275 89.7866 272.884L111.092 254.497C115.945 250.289 122.998 244.285 126.328 238.921C129.365 234.027 129.555 223.66 125.329 219.325C119.338 213.181 108.623 212.972 102.251 218.593C98.1145 222.242 96.7367 227.512 96.4894 232.765C89.7898 231.564 82.2347 231.388 75.2528 230.351C77.7266 208.634 88.3302 197.579 110.429 195.856Z"/><path fill="#FEFEFE" d="M202.156 195.854C203.135 195.689 204.444 195.729 205.462 195.681C241.935 193.939 254.516 229.791 250.8 260.269C250.302 264.353 249.206 268.624 248.454 272.754C246.734 271.253 243.466 269.213 241.479 267.905C237.158 265.045 232.794 262.251 228.386 259.526C228.438 259.146 228.487 258.767 228.534 258.387C229.88 247.366 228.904 230.937 221.752 221.961C218.497 217.887 213.752 215.279 208.568 214.714C203.402 214.214 198.25 215.792 194.25 219.099C186.991 225.1 184.816 234.906 183.932 243.81C183.574 247.616 183.644 251.222 183.908 255.01C184.899 269.212 188.634 283.178 204.683 285.502C204.737 287.347 205.296 290.018 205.506 291.933C206.005 296.485 206.655 301.013 207.378 305.535C203.873 305.526 201.047 304.962 197.639 304.357C168.434 299.172 159.465 268.837 161.935 242.618C164.205 218.528 175.602 198.231 202.156 195.854Z"/><path fill="#FEFEFE" d="M350.064 197.482L424.722 197.473C424.608 200.249 424.815 212.703 424.325 214.1C422.618 218.957 418.259 227.783 415.984 232.708L393.512 281.028L387.25 294.247C385.902 297.085 384.146 300.598 383.203 303.535C375.281 303.363 366.869 303.491 358.903 303.474C360.878 300.078 363.954 293.06 365.747 289.272L378.309 262.745C385.42 247.609 393.639 231.862 400.268 216.577C396.888 216.839 388.073 216.557 384.409 216.554L350.094 216.518C350.4 210.802 350.167 203.248 350.064 197.482Z"/><path fill="#FEFEFE" d="M206.614 253.729C208.477 254.803 210.388 255.949 212.188 257.126C225.434 265.794 239.079 274.111 252.16 283.015C247.24 283.793 239.256 286.034 234.273 287.272C235.609 289.589 246.5 305.934 246.363 306.994L245.49 307.469C243.121 308.866 240.373 310.739 238.013 312.249C234.21 305.703 229.984 299.408 226.177 292.799C224.326 294.535 222.597 296.906 220.986 298.907L214.065 307.356C213.984 303.167 212.949 298.046 212.409 293.84C211.401 284.981 209.716 276.123 208.596 267.281C208.012 262.674 207.249 258.271 206.614 253.729Z"/></svg>